<svg xmlns="http://www.w3.org/2000/svg" width="960" height="540" viewBox="0 0 960 540">
<rect width="100%" height="100%" fill="#ffffff"/>
<style>text{font-family:Arial,Helvetica,sans-serif;fill:#111827} .axis{stroke:#374151;stroke-width:1} .grid{stroke:#e5e7eb;stroke-width:1} .muted{fill:#6b7280;font-size:11px} .title{font-size:18px;font-weight:700} .label{font-size:12px;font-weight:600}</style>
<text x="80" y="30" class="title">Mean demand by day</text>
<line x1="80" y1="468.0" x2="920" y2="468.0" class="grid"/>
<text x="72" y="472.0" text-anchor="end" class="muted">0</text>
<line x1="80" y1="386.4" x2="920" y2="386.4" class="grid"/>
<text x="72" y="390.4" text-anchor="end" class="muted">0.02118</text>
<line x1="80" y1="304.8" x2="920" y2="304.8" class="grid"/>
<text x="72" y="308.8" text-anchor="end" class="muted">0.04236</text>
<line x1="80" y1="223.2" x2="920" y2="223.2" class="grid"/>
<text x="72" y="227.2" text-anchor="end" class="muted">0.06354</text>
<line x1="80" y1="141.6" x2="920" y2="141.6" class="grid"/>
<text x="72" y="145.6" text-anchor="end" class="muted">0.08471</text>
<line x1="80" y1="60.0" x2="920" y2="60.0" class="grid"/>
<text x="72" y="64.0" text-anchor="end" class="muted">0.1059</text>
<text x="80.0" y="488" text-anchor="middle" class="muted">47.95</text>
<text x="248.0" y="488" text-anchor="middle" class="muted">48.17</text>
<text x="416.0" y="488" text-anchor="middle" class="muted">48.39</text>
<text x="584.0" y="488" text-anchor="middle" class="muted">48.61</text>
<text x="752.0" y="488" text-anchor="middle" class="muted">48.83</text>
<text x="920.0" y="488" text-anchor="middle" class="muted">49.05</text>
<polyline points="118.18,110.99 881.82,62.43" fill="none" stroke="#2563eb" stroke-width="2.4"/>
<line x1="770" y1="25" x2="786" y2="25" stroke="#2563eb" stroke-width="3"/>
<text x="792" y="29" class="muted">mean demand</text>
<line x1="80" y1="468" x2="920" y2="468" class="axis"/>
<line x1="80" y1="60" x2="80" y2="468" class="axis"/>
<text x="500.0" y="520" text-anchor="middle" class="label">day</text>
<text x="18" y="264.0" transform="rotate(-90 18,264.0)" text-anchor="middle" class="label">mean demand</text>
</svg>