<svg xmlns="http://www.w3.org/2000/svg" width="980" height="560" viewBox="0 0 980 560">
<rect width="100%" height="100%" fill="#ffffff"/>
<style>text{font-family:Arial,Helvetica,sans-serif;fill:#111827} .axis{stroke:#374151;stroke-width:1} .grid{stroke:#e5e7eb;stroke-width:1} .muted{fill:#6b7280;font-size:11px} .title{font-size:18px;font-weight:700} .label{font-size:12px;font-weight:600}</style>
<text x="90" y="30" class="title">Train Landmarks frequency</text>
<line x1="90" y1="425.0" x2="950" y2="425.0" class="grid"/>
<text x="82" y="429.0" text-anchor="end" class="muted">0</text>
<line x1="90" y1="352.0" x2="950" y2="352.0" class="grid"/>
<text x="82" y="356.0" text-anchor="end" class="muted">1.041e+04</text>
<line x1="90" y1="279.0" x2="950" y2="279.0" class="grid"/>
<text x="82" y="283.0" text-anchor="end" class="muted">2.082e+04</text>
<line x1="90" y1="206.0" x2="950" y2="206.0" class="grid"/>
<text x="82" y="210.0" text-anchor="end" class="muted">3.123e+04</text>
<line x1="90" y1="133.0" x2="950" y2="133.0" class="grid"/>
<text x="82" y="137.0" text-anchor="end" class="muted">4.163e+04</text>
<line x1="90" y1="60.0" x2="950" y2="60.0" class="grid"/>
<text x="82" y="64.0" text-anchor="end" class="muted">5.204e+04</text>
<rect x="150.2" y="60.0" width="309.6" height="365.0" fill="#2563eb" opacity="0.86"/>
<text x="305.0" y="442" text-anchor="end" class="muted" transform="rotate(-45 305.0,442)">Yes</text>
<rect x="580.2" y="247.9" width="309.6" height="177.1" fill="#2563eb" opacity="0.86"/>
<text x="735.0" y="442" text-anchor="end" class="muted" transform="rotate(-45 735.0,442)">No</text>
<line x1="90" y1="425" x2="950" y2="425" class="axis"/>
<line x1="90" y1="60" x2="90" y2="425" class="axis"/>
<text x="18" y="242.5" transform="rotate(-90 18,242.5)" text-anchor="middle" class="label">count</text>
</svg>