<svg xmlns="http://www.w3.org/2000/svg" width="900" height="520" viewBox="0 0 900 520">
<rect width="100%" height="100%" fill="#ffffff"/>
<style>text{font-family:Arial,Helvetica,sans-serif;fill:#111827} .axis{stroke:#374151;stroke-width:1} .grid{stroke:#e5e7eb;stroke-width:1} .muted{fill:#6b7280;font-size:11px} .title{font-size:18px;font-weight:700} .label{font-size:12px;font-weight:600}</style>
<text x="80" y="30" class="title">Demand distribution clipped at p99</text>
<line x1="80" y1="448.0" x2="870" y2="448.0" class="grid"/>
<text x="72" y="452.0" text-anchor="end" class="muted">0</text>
<line x1="80" y1="370.0" x2="870" y2="370.0" class="grid"/>
<text x="72" y="374.0" text-anchor="end" class="muted">4433</text>
<line x1="80" y1="292.0" x2="870" y2="292.0" class="grid"/>
<text x="72" y="296.0" text-anchor="end" class="muted">8866</text>
<line x1="80" y1="214.0" x2="870" y2="214.0" class="grid"/>
<text x="72" y="218.0" text-anchor="end" class="muted">13300</text>
<line x1="80" y1="136.0" x2="870" y2="136.0" class="grid"/>
<text x="72" y="140.0" text-anchor="end" class="muted">17733</text>
<line x1="80" y1="58.0" x2="870" y2="58.0" class="grid"/>
<text x="72" y="62.0" text-anchor="end" class="muted">22167</text>
<rect x="80.00" y="58.00" width="18.75" height="390.00" fill="#0f766e" opacity="0.82"/>
<rect x="99.75" y="199.44" width="18.75" height="248.56" fill="#0f766e" opacity="0.82"/>
<rect x="119.50" y="278.03" width="18.75" height="169.97" fill="#0f766e" opacity="0.82"/>
<rect x="139.25" y="326.87" width="18.75" height="121.13" fill="#0f766e" opacity="0.82"/>
<rect x="159.00" y="360.17" width="18.75" height="87.83" fill="#0f766e" opacity="0.82"/>
<rect x="178.75" y="382.38" width="18.75" height="65.62" fill="#0f766e" opacity="0.82"/>
<rect x="198.50" y="398.81" width="18.75" height="49.19" fill="#0f766e" opacity="0.82"/>
<rect x="218.25" y="409.82" width="18.75" height="38.18" fill="#0f766e" opacity="0.82"/>
<rect x="238.00" y="418.46" width="18.75" height="29.54" fill="#0f766e" opacity="0.82"/>
<rect x="257.75" y="424.88" width="18.75" height="23.12" fill="#0f766e" opacity="0.82"/>
<rect x="277.50" y="429.14" width="18.75" height="18.86" fill="#0f766e" opacity="0.82"/>
<rect x="297.25" y="433.70" width="18.75" height="14.30" fill="#0f766e" opacity="0.82"/>
<rect x="317.00" y="435.21" width="18.75" height="12.79" fill="#0f766e" opacity="0.82"/>
<rect x="336.75" y="437.76" width="18.75" height="10.24" fill="#0f766e" opacity="0.82"/>
<rect x="356.50" y="439.48" width="18.75" height="8.52" fill="#0f766e" opacity="0.82"/>
<rect x="376.25" y="440.75" width="18.75" height="7.25" fill="#0f766e" opacity="0.82"/>
<rect x="396.00" y="441.51" width="18.75" height="6.49" fill="#0f766e" opacity="0.82"/>
<rect x="415.75" y="442.19" width="18.75" height="5.81" fill="#0f766e" opacity="0.82"/>
<rect x="435.50" y="443.72" width="18.75" height="4.28" fill="#0f766e" opacity="0.82"/>
<rect x="455.25" y="444.16" width="18.75" height="3.84" fill="#0f766e" opacity="0.82"/>
<rect x="475.00" y="444.15" width="18.75" height="3.85" fill="#0f766e" opacity="0.82"/>
<rect x="494.75" y="445.11" width="18.75" height="2.89" fill="#0f766e" opacity="0.82"/>
<rect x="514.50" y="444.97" width="18.75" height="3.03" fill="#0f766e" opacity="0.82"/>
<rect x="534.25" y="445.80" width="18.75" height="2.20" fill="#0f766e" opacity="0.82"/>
<rect x="554.00" y="445.89" width="18.75" height="2.11" fill="#0f766e" opacity="0.82"/>
<rect x="573.75" y="446.05" width="18.75" height="1.95" fill="#0f766e" opacity="0.82"/>
<rect x="593.50" y="446.24" width="18.75" height="1.76" fill="#0f766e" opacity="0.82"/>
<rect x="613.25" y="446.52" width="18.75" height="1.48" fill="#0f766e" opacity="0.82"/>
<rect x="633.00" y="446.61" width="18.75" height="1.39" fill="#0f766e" opacity="0.82"/>
<rect x="652.75" y="446.87" width="18.75" height="1.13" fill="#0f766e" opacity="0.82"/>
<rect x="672.50" y="446.57" width="18.75" height="1.43" fill="#0f766e" opacity="0.82"/>
<rect x="692.25" y="447.09" width="18.75" height="0.91" fill="#0f766e" opacity="0.82"/>
<rect x="712.00" y="447.07" width="18.75" height="0.93" fill="#0f766e" opacity="0.82"/>
<rect x="731.75" y="447.10" width="18.75" height="0.90" fill="#0f766e" opacity="0.82"/>
<rect x="751.50" y="447.00" width="18.75" height="1.00" fill="#0f766e" opacity="0.82"/>
<rect x="771.25" y="447.03" width="18.75" height="0.97" fill="#0f766e" opacity="0.82"/>
<rect x="791.00" y="447.05" width="18.75" height="0.95" fill="#0f766e" opacity="0.82"/>
<rect x="810.75" y="447.37" width="18.75" height="0.63" fill="#0f766e" opacity="0.82"/>
<rect x="830.50" y="447.37" width="18.75" height="0.63" fill="#0f766e" opacity="0.82"/>
<rect x="850.25" y="433.68" width="18.75" height="14.32" fill="#0f766e" opacity="0.82"/>
<line x1="80" y1="448" x2="870" y2="448" class="axis"/>
<line x1="80" y1="58" x2="80" y2="448" class="axis"/>
<text x="80.0" y="468" text-anchor="middle" class="muted">6.246e-07</text>
<text x="238.0" y="468" text-anchor="middle" class="muted">0.1725</text>
<text x="396.0" y="468" text-anchor="middle" class="muted">0.3449</text>
<text x="554.0" y="468" text-anchor="middle" class="muted">0.5174</text>
<text x="712.0" y="468" text-anchor="middle" class="muted">0.6898</text>
<text x="870.0" y="468" text-anchor="middle" class="muted">0.8623</text>
<text x="475.0" y="500" text-anchor="middle" class="label">demand clipped at p99</text>
<text x="18" y="253.0" transform="rotate(-90 18,253.0)" text-anchor="middle" class="label">Count</text>
</svg>